<svg xmlns="http://www.w3.org/2000/svg" viewBox="0 0 24 24" role="img" aria-label="WhatsApp">
  <path fill="#25D366" d="M12 2a10 10 0 0 0-8.66 15l-1.3 4.76 4.88-1.28A10 10 0 1 0 12 2Z"/>
  <path fill="#fff" d="M17.44 14.31c-.23-.12-1.38-.68-1.6-.75-.22-.08-.38-.12-.54.11-.16.23-.62.75-.76.91-.14.16-.27.18-.5.06-.23-.12-.98-.36-1.86-1.15-.69-.61-1.15-1.37-1.29-1.6-.14-.23-.02-.35.1-.47.11-.11.23-.27.34-.41.11-.14.15-.23.23-.38.08-.16.04-.29-.02-.41-.06-.12-.54-1.31-.74-1.79-.2-.48-.4-.41-.54-.42h-.46c-.16 0-.41.06-.62.29-.21.23-.81.79-.81 1.93 0 1.14.83 2.24.95 2.4.12.16 1.64 2.5 3.98 3.5.56.24 1 .38 1.34.48.56.18 1.07.15 1.47.09.45-.07 1.38-.56 1.58-1.1.2-.54.2-1 .14-1.1-.06-.1-.21-.16-.44-.27Z"/>
</svg>
